<?xml version="1.0" standalone="no"?><svg xmlns="http://www.w3.org/2000/svg" viewBox="0 0 1440 320"><path fill="#b27ae6" fill-opacity="0.5" d="M0,320L30,304C60,288,120,256,180,234.7C240,213,300,203,360,213.3C420,224,480,256,540,234.7C600,213,660,139,720,90.7C780,43,840,21,900,21.3C960,21,1020,43,1080,48C1140,53,1200,43,1260,80C1320,117,1380,203,1410,245.3L1440,288L1440,320L1410,320C1380,320,1320,320,1260,320C1200,320,1140,320,1080,320C1020,320,960,320,900,320C840,320,780,320,720,320C660,320,600,320,540,320C480,320,420,320,360,320C300,320,240,320,180,320C120,320,60,320,30,320L0,320Z"></path></svg>