<?xml version="1.0" standalone="no"?><svg xmlns="http://www.w3.org/2000/svg" viewBox="0 0 1440 320"><path fill="#b27ae6" fill-opacity="0.5" d="M0,224L40,202.7C80,181,160,139,240,154.7C320,171,400,245,480,234.7C560,224,640,128,720,117.3C800,107,880,181,960,186.7C1040,192,1120,128,1200,112C1280,96,1360,128,1400,144L1440,160L1440,320L1400,320C1360,320,1280,320,1200,320C1120,320,1040,320,960,320C880,320,800,320,720,320C640,320,560,320,480,320C400,320,320,320,240,320C160,320,80,320,40,320L0,320Z"></path></svg>